<svg width="44" height="44" viewBox="0 0 44 44" fill="none" xmlns="http://www.w3.org/2000/svg">
<rect width="44" height="44" rx="22" fill="#003C38"/>
<path d="M22.4993 20.5791C23.5235 20.5792 24.592 20.7359 25.4084 21.0723C26.2199 21.4066 26.8185 21.9345 26.8186 22.6885V26.9746C26.8184 27.7275 26.2265 28.3297 25.2249 28.7012V33.9541C25.2249 34.1391 25.0739 34.29 24.8889 34.29C24.7042 34.29 24.553 34.1401 24.553 33.9541V24.165C24.553 23.9801 24.704 23.8292 24.8889 23.8291C25.0737 23.8291 25.2249 23.979 25.2249 24.165V27.9756C25.4383 27.88 25.6501 27.7608 25.8167 27.6133C26.0182 27.4347 26.1467 27.224 26.1467 26.9736V22.6875C26.1466 22.4471 26.0191 22.2442 25.8206 22.0723C25.6215 21.8999 25.3597 21.7671 25.1145 21.6699C24.4344 21.4007 23.5053 21.25 22.4993 21.25C21.4932 21.25 20.565 21.4006 19.884 21.6699C19.639 21.7671 19.3763 21.8997 19.177 22.0723C18.9784 22.2442 18.852 22.4472 18.8518 22.6875V26.9736C18.8518 27.1154 18.8938 27.2903 19.0432 27.4736C19.178 27.639 19.4036 27.8144 19.7727 27.9775V24.166C19.7727 23.9811 19.9238 23.8302 20.1086 23.8301C20.2934 23.8301 20.4446 23.98 20.4446 24.166V33.9551C20.4445 34.14 20.2936 34.291 20.1086 34.291C19.924 34.2909 19.7728 34.1409 19.7727 33.9551V28.7021C18.7571 28.3275 18.1799 27.7392 18.1799 26.9746V22.6895C18.18 21.9354 18.7776 21.4076 19.5891 21.0732C20.4053 20.737 21.4737 20.5794 22.4973 20.5791L22.4983 20.5781V20.5791L22.4993 20.5781V20.5791Z" fill="#F4F4ED" stroke="#F4F4ED" stroke-width="0.2"/>
<path d="M22.4998 28.5583C22.6844 28.5586 22.8357 28.7084 22.8357 28.8943V33.9548C22.8357 34.1397 22.6846 34.2906 22.4998 34.2908C22.315 34.2908 22.1638 34.1408 22.1638 33.9548V28.8943C22.1638 28.7095 22.3138 28.5583 22.4998 28.5583Z" fill="#F4F4ED" stroke="#F4F4ED" stroke-width="0.2"/>
<path d="M16.8115 17.1389C17.8752 17.0398 19.0348 17.1054 19.999 17.3655L20.0391 17.3762L20.1289 17.4006L20.1113 17.4915L20.1035 17.5315C20.0824 17.6489 20.0714 17.7703 20.0684 17.8918V17.8928L20.0664 17.9524L20.0625 18.0813L19.9395 18.0461L19.8809 18.0295C18.9985 17.7783 17.9295 17.7031 16.9453 17.7854C15.9584 17.8679 15.0727 18.1068 14.5469 18.468C14.2183 18.6938 14.0713 18.9412 14.0713 19.1995V23.4836C14.0713 23.6255 14.1133 23.8003 14.2627 23.9836C14.3975 24.1491 14.6229 24.3253 14.9922 24.4885V20.675C14.9924 20.4906 15.1424 20.3393 15.3281 20.3391H15.3291C15.5138 20.3391 15.6649 20.4892 15.665 20.675V30.4641C15.665 30.6491 15.5141 30.8 15.3291 30.8C15.1444 30.7999 14.9932 30.65 14.9932 30.4641V25.2122C13.9775 24.8375 13.4004 24.2493 13.4004 23.4846V19.2004C13.4004 18.6984 13.675 18.2543 14.168 17.9153C14.7691 17.5019 15.7509 17.2377 16.8115 17.1389Z" fill="#F4F4ED" stroke="#F4F4ED" stroke-width="0.2"/>
<path d="M17.6052 11.1707C18.8786 11.1707 19.9147 12.2059 19.9148 13.4792C19.9148 14.7527 18.8787 15.7888 17.6052 15.7888C16.3318 15.7887 15.2966 14.7526 15.2966 13.4792C15.2967 12.2059 16.3319 11.1708 17.6052 11.1707ZM17.6052 11.8425C16.7035 11.8426 15.9686 12.5768 15.9685 13.4792C15.9685 14.3811 16.7034 15.1159 17.6052 15.116C18.5071 15.116 19.2419 14.3812 19.2419 13.4792C19.2418 12.5774 18.5071 11.8425 17.6052 11.8425Z" fill="#F4F4ED" stroke="#F4F4ED" stroke-width="0.2"/>
<path d="M27.1663 11.1707C28.4397 11.1707 29.4757 12.2059 29.4758 13.4792C29.4758 14.7527 28.4397 15.7888 27.1663 15.7888C25.8929 15.7887 24.8577 14.7526 24.8577 13.4792C24.8578 12.2059 25.893 11.1708 27.1663 11.1707ZM27.1663 11.8425C26.2645 11.8426 25.5297 12.5768 25.5295 13.4792C25.5295 14.3811 26.2644 15.1159 27.1663 15.116C28.0682 15.116 28.803 14.3812 28.803 13.4792C28.8029 12.5774 28.0681 11.8425 27.1663 11.8425Z" fill="#F4F4ED" stroke="#F4F4ED" stroke-width="0.2"/>
<path d="M24.7795 17.429C25.7324 17.1314 26.904 17.0344 27.9954 17.1135C29.0843 17.1925 30.1092 17.4475 30.7629 17.8674L30.8088 17.8967V17.9006C31.3165 18.2422 31.5997 18.6889 31.5999 19.1995V23.4846C31.5998 24.2374 31.0083 24.8386 30.0071 25.2102V30.4641C30.0071 30.6491 29.8552 30.8 29.6702 30.8C29.4856 30.7998 29.3342 30.6499 29.3342 30.4641V20.675C29.3344 20.4903 29.4855 20.3394 29.6702 20.3391C29.8548 20.3391 30.0069 20.4892 30.0071 20.675V24.4856C30.2203 24.39 30.4315 24.2707 30.5979 24.1233C30.7995 23.9447 30.928 23.7341 30.928 23.4836V19.1995C30.928 18.9272 30.7656 18.6682 30.3997 18.4329C29.841 18.0735 28.8922 17.8465 27.8606 17.7825C26.9603 17.7266 26.011 17.7963 25.2249 18.0012L24.8987 18.0969L24.8381 18.1174L24.7063 18.1624V17.9436C24.7063 17.8255 24.6969 17.7067 24.679 17.5911L24.6731 17.552L24.6594 17.4661L24.7415 17.4407L24.7795 17.429Z" fill="#F4F4ED" stroke="#F4F4ED" stroke-width="0.2"/>
<path d="M22.3845 15.087C23.5445 15.087 24.5282 15.9534 24.6746 17.1036H24.6755C24.6878 17.203 24.6941 17.3015 24.6941 17.3956C24.6941 17.4427 24.6926 17.4888 24.6902 17.5333V17.5343C24.6184 18.7518 23.6053 19.7052 22.3855 19.7052H22.3845C21.1347 19.7051 20.0998 18.6884 20.0759 17.4386V17.3956C20.0759 17.2712 20.0867 17.1452 20.1072 17.0206C20.2906 15.9012 21.2255 15.0871 22.3845 15.087ZM22.3855 15.7589C21.4836 15.7589 20.7489 16.4931 20.7488 17.3956C20.7488 18.2975 21.4836 19.0323 22.3855 19.0323C23.2874 19.0323 24.0222 18.2975 24.0222 17.3956C24.0221 16.4938 23.2873 15.7589 22.3855 15.7589Z" fill="#F4F4ED" stroke="#F4F4ED" stroke-width="0.2"/>
</svg>
